<svg fill="none" height="127" viewBox="0 0 103 127" width="103" xmlns="http://www.w3.org/2000/svg" xmlns:xlink="http://www.w3.org/1999/xlink"><mask id="a" fill="#000" height="153.361" maskUnits="userSpaceOnUse" width="143.486" x="-22.356" y="-12.7708"><path d="m-22.356-12.7708h143.486v153.361h-143.486z" fill="#fff"/><path clip-rule="evenodd" d="m35.9172 20.6093-.4383.1045.3327.2987zm27.9673 70.3245c1.106.9779 2.0636.787 3.2349-.1517-1.4043-.9165-2.4125-1.1137-3.2349.1517zm2.3681-62.5311c-1.139-2.7836-1.139-2.7836-4.0392-1.4393 1.4483.5162 2.5629.9149 4.0392 1.4393zm-28.3217 65.8095c-3.8128-1.4743-3.8164-1.4606-5.9576-.1699 1.9522 1.1267 3.7357 1.1007 5.9576.1699zm-8.3934-6.4321c-2.3151-1.5252-3.5706-1.7691-4.8961-1.1004-.2858.1439-.665.6236-.6022.8406.1346.5017.5659 1.3538.7876 1.3252 1.246-.1529 2.4678-.5229 4.7107-1.0654zm13.0207-41.403c-1.594-1.5462-3.5738-1.7809-5.5189-1.8143-.5424-.01-1.3181.7789-1.597 1.3792-.4033.8731.5296 2.2267 1.4123 2.2001 1.9601-.0616 4.0147.1003 5.7036-1.765zm.9831-17.8576c-2.9885-2.0099-5.5139-2.4977-8.3044-2.061-.0622 2.3859.1414 2.9641 1.0453 3.167 2.1835.4921 4.3263.5409 7.2591-1.106zm21.0554 16.3653c1.1533-1.5543 1.2707-3.0407.0014-3.4161-2.6954-.797-5.4727-.6209-8.7825 1.3174 3.3615 1.1527 5.8147 2.3194 8.7811 2.0987zm-29.5065-10.4767c.125 2.0215.2019 3.2869.2816 4.5631 3.5068.7567 6.4727.2552 10.0219-1.2679-3.3645-1.8005-6.3042-2.5993-10.3035-3.2952zm11.5224 20.0097c-3.2719-2.061-6.5584-1.4868-9.6054-1.949-.3369-.0521-1.1237.7341-1.1471 1.1603-.0612 1.108.1863 2.2304.3425 3.626 3.6615-.6024 6.9002-1.1845 10.41-2.8373zm17.338-1.321c.9632-1.7771.6237-2.9853-.833-3.0931-2.9259-.2189-5.8806-.1148-8.82-.0255-.5388.017-1.0626.5904-2.7539 1.5993 4.9539.5373 8.4318 1.9564 12.4069 1.5193zm1.7262-42.4201c-3.2445-1.27013-5.4495-.1024-7.7894 1.6119 1.1183 2.167 2.8707 3.1096 4.4685 4.1724 1.0288.6859 2.5698.0763 2.8136-1.1505.2963-1.4954.3449-3.0408.5073-4.6338zm-5.6259 72.7238c3.3197 1.5697 6.8865 1.9827 10.4551 2.3079 1.6897.1545 2.2755-.6665 2.5448-3.265-4.3554-.7491-8.6318-.419-12.9999.9571zm-17.4956-11.3092c-6.1181-2.8409-11.3899-2.7016-16.2018.4887 1.2778.2877 2.1821.7086 3.0544.6494 4.232-.2779 8.5744.3901 13.1474-1.1381zm6.9805-12.7275c4.0375 1.1535 8.1667 1.5211 12.3302 1.2238.532-.0393 1.3628-1.0043 1.3861-1.5682.0225-.5415-.8274-1.6101-1.2865-1.6041-4.1617.0385-8.3499.0263-12.4298 1.9485zm16.3285-28.1143c-4.7563 1.0598-9.1474.0757-13.7856 2.5584 4.7064 1.9729 8.9254 2.2719 13.4547 2.6759.1721-.8678.3512-1.4379.3881-2.0179.0443-.7686-.0201-1.5438-.0572-3.2164zm-6.4319 44.15c.3975.6406.5546 1.1771.7717 1.2013 5.3516.6333 10.7015 1.275 16.0658 1.7624 1.6356.1495 3.2197-1.3471 2.8688-2.3704-.5135-1.5045-1.8922-1.2534-3.0171-1.308-2.6-.1231-5.2064-.1518-7.8112-.1625-2.9422-.0108-5.8724.1371-8.878.8772zm-46.4768 2.4194c1.1737 3.2164 2.8784 4.1995 5.7678 3.8442 5.3509-.6559 10.7456-.9483 16.1163-1.4425.897-.0849 1.769-.4339 2.6507-.6606.0669-.413.132-.8252.1994-1.2373-.7972-.0633-1.595-.1306-2.3947-.185-2.9917-.2108-5.9809-.4161-8.9727-.6225-1.384-.0959-2.8477.0607-4.1269-.3532-1.241-.4026-2.2929-1.3898-3.3195-2.0492zm44.1918-9.4415c2.4856.5215 3.7062.8651 4.9472 1.0242 5.9293.7638 11.9432 1.1174 17.7709 2.3508 3.2975.6992 5.3642-.1804 7.3406-2.4152.7938-.894 1.64-1.7504 2.3622-2.6999.973-1.2856.5145-3.0048-1.0365-3.3286-2.5205-.5253-5.0979-.7822-7.6594-1.0839-.2421-.0282-.5425.4431-.8187.6828.5273.9559 1.0514 1.9023 1.7904 3.2442-7.9945 1.7684-15.9009-.372-24.6967 2.2256zm-7.9138-52.0352c.2978.1163.5996.234.8996.3504-.0473-.2363-.0943-.4716-.143-.7084-.267.1827-.5341.3676-.802.5529-.0675-.1885-.0849-.4968-.2087-.5483-4.315-1.8135-8.7237-2.5636-13.2613-.9315-.3535.1285-.4652.9235-.8961 1.8567 4.0996.0571 7.8226.1607 11.5458.1297.9576-.0101 1.9086-.4492 2.8657-.7015zm-2.5793 48.2095c.3118-.2076.6236-.4152.9354-.6205-.3363.2144-.6731.43-1.0093.6443-.2285-.5215-.4012-1.461-.6936-1.5004-2.7391-.367-5.5147-.8672-8.2508-.7309-1.6611.0815-1.4091 1.5467-.2396 2.996 2.9155-.2426 6.0718-.506 9.2579-.7885zm10.7766 56.1543c-2.3768.73-3.7496.195-4.8685-1.196-5.8109-7.235-12.7259-13.28-20.0279-18.959-7.1118-5.5336-14.1424-11.1856-20.9701-17.0616-2.15776-1.8561-4.97485-3.4693-5.70161-7.0365.82814-.5295 1.57655-1.178 2.44404-1.537 6.85097-2.8306 13.71687-5.6262 20.59587-8.3858 1.9872-.7981 2.65-2.2341 2.5267-4.2619-.3918-6.4029-.8299-12.8033-1.0829-19.2113-.2986-7.6049-.3656-15.2165-.6552-22.8211-.089-2.3455-.58-4.6758-.9138-7.2147 2.16-1.6133 4.8237-1.732 7.3151-2.225 8.2561-1.63004 16.5202-3.22083 24.8081-4.66814 2.5354-.44253 5.1676-.57441 7.7429-.47414 1.7407.06842 2.8981 1.77119 2.4034 3.49072-1.4407 4.99326-.2466 9.94936-.204 14.93246.0746 9.01-.3106 18.0242-.5155 27.0353-.0398 1.7695-.1326 3.5389-.1913 5.079 2.1601 1.9697 4.4809 1.4291 6.6131 1.3847 6.1109-.136 11.9673 1.0325 17.6609 3.1229 1.2609.463 2.405 1.2494 3.4166 1.7867.4645 2.2917-.8987 3.2565-2.0186 4.3823-3.1091 3.125-6.5088 6.029-9.1921 9.4852-3.1765 4.0915-7.0011 7.602-9.9677 11.8633-2.8613 4.1084-6.2353 7.8813-8.8539 12.1296-2.9351 4.76-6.1574 9.405-8.0331 14.768-.6574 1.882-1.5301 3.686-2.3305 5.592z" fill="#000" fill-rule="evenodd"/></mask><g clip-rule="evenodd" fill-rule="evenodd"><path d="m35.9172 20.6093-.4383.1045.3327.2987zm27.9673 70.3245c1.106.9779 2.0636.787 3.2349-.1517-1.4043-.9165-2.4125-1.1137-3.2349.1517zm2.3681-62.5311c-1.139-2.7836-1.139-2.7836-4.0392-1.4393 1.4483.5162 2.5629.9149 4.0392 1.4393zm-28.3217 65.8095c-3.8128-1.4743-3.8164-1.4606-5.9576-.1699 1.9522 1.1267 3.7357 1.1007 5.9576.1699zm-8.3934-6.4321c-2.3151-1.5252-3.5706-1.7691-4.8961-1.1004-.2858.1439-.665.6236-.6022.8406.1346.5017.5659 1.3538.7876 1.3252 1.246-.1529 2.4678-.5229 4.7107-1.0654zm13.0207-41.403c-1.594-1.5462-3.5738-1.7809-5.5189-1.8143-.5424-.01-1.3181.7789-1.597 1.3792-.4033.8731.5296 2.2267 1.4123 2.2001 1.9601-.0616 4.0147.1003 5.7036-1.765zm.9831-17.8576c-2.9885-2.0099-5.5139-2.4977-8.3044-2.061-.0622 2.3859.1414 2.9641 1.0453 3.167 2.1835.4921 4.3263.5409 7.2591-1.106zm21.0554 16.3653c1.1533-1.5543 1.2707-3.0407.0014-3.4161-2.6954-.797-5.4727-.6209-8.7825 1.3174 3.3615 1.1527 5.8147 2.3194 8.7811 2.0987zm-29.5065-10.4767c.125 2.0215.2019 3.2869.2816 4.5631 3.5068.7567 6.4727.2552 10.0219-1.2679-3.3645-1.8005-6.3042-2.5993-10.3035-3.2952zm11.5224 20.0097c-3.2719-2.061-6.5584-1.4868-9.6054-1.949-.3369-.0521-1.1237.7341-1.1471 1.1603-.0612 1.108.1863 2.2304.3425 3.626 3.6615-.6024 6.9002-1.1845 10.41-2.8373zm17.338-1.321c.9632-1.7771.6237-2.9853-.833-3.0931-2.9259-.2189-5.8806-.1148-8.82-.0255-.5388.017-1.0626.5904-2.7539 1.5993 4.9539.5373 8.4318 1.9564 12.4069 1.5193zm1.7262-42.4201c-3.2445-1.27013-5.4495-.1024-7.7894 1.6119 1.1183 2.167 2.8707 3.1096 4.4685 4.1724 1.0288.6859 2.5698.0763 2.8136-1.1505.2963-1.4954.3449-3.0408.5073-4.6338zm-5.6259 72.7238c3.3197 1.5697 6.8865 1.9827 10.4551 2.3079 1.6897.1545 2.2755-.6665 2.5448-3.265-4.3554-.7491-8.6318-.419-12.9999.9571zm-17.4956-11.3092c-6.1181-2.8409-11.3899-2.7016-16.2018.4887 1.2778.2877 2.1821.7086 3.0544.6494 4.232-.2779 8.5744.3901 13.1474-1.1381zm6.9805-12.7275c4.0375 1.1535 8.1667 1.5211 12.3302 1.2238.532-.0393 1.3628-1.0043 1.3861-1.5682.0225-.5415-.8274-1.6101-1.2865-1.6041-4.1617.0385-8.3499.0263-12.4298 1.9485zm16.3285-28.1143c-4.7563 1.0598-9.1474.0757-13.7856 2.5584 4.7064 1.9729 8.9254 2.2719 13.4547 2.6759.1721-.8678.3512-1.4379.3881-2.0179.0443-.7686-.0201-1.5438-.0572-3.2164zm-6.4319 44.15c.3975.6406.5546 1.1771.7717 1.2013 5.3516.6333 10.7015 1.275 16.0658 1.7624 1.6356.1495 3.2197-1.3471 2.8688-2.3704-.5135-1.5045-1.8922-1.2534-3.0171-1.308-2.6-.1231-5.2064-.1518-7.8112-.1625-2.9422-.0108-5.8724.1371-8.878.8772zm-46.4768 2.4194c1.1737 3.2164 2.8784 4.1995 5.7678 3.8442 5.3509-.6559 10.7456-.9483 16.1163-1.4425.897-.0849 1.769-.4339 2.6507-.6606.0669-.413.132-.8252.1994-1.2373-.7972-.0633-1.595-.1306-2.3947-.185-2.9917-.2108-5.9809-.4161-8.9727-.6225-1.384-.0959-2.8477.0607-4.1269-.3532-1.241-.4026-2.2929-1.3898-3.3195-2.0492zm44.1918-9.4415c2.4856.5215 3.7062.8651 4.9472 1.0242 5.9293.7638 11.9432 1.1174 17.7709 2.3508 3.2975.6992 5.3642-.1804 7.3406-2.4152.7938-.894 1.64-1.7504 2.3622-2.6999.973-1.2856.5145-3.0048-1.0365-3.3286-2.5205-.5253-5.0979-.7822-7.6594-1.0839-.2421-.0282-.5425.4431-.8187.6828.5273.9559 1.0514 1.9023 1.7904 3.2442-7.9945 1.7684-15.9009-.372-24.6967 2.2256zm-7.9138-52.0352c.2978.1163.5996.234.8996.3504-.0473-.2363-.0943-.4716-.143-.7084-.267.1827-.5341.3676-.802.5529-.0675-.1885-.0849-.4968-.2087-.5483-4.315-1.8135-8.7237-2.5636-13.2613-.9315-.3535.1285-.4652.9235-.8961 1.8567 4.0996.0571 7.8226.1607 11.5458.1297.9576-.0101 1.9086-.4492 2.8657-.7015zm-2.5793 48.2095c.3118-.2076.6236-.4152.9354-.6205-.3363.2144-.6731.43-1.0093.6443-.2285-.5215-.4012-1.461-.6936-1.5004-2.7391-.367-5.5147-.8672-8.2508-.7309-1.6611.0815-1.4091 1.5467-.2396 2.996 2.9155-.2426 6.0718-.506 9.2579-.7885zm10.7766 56.1543c-2.3768.73-3.7496.195-4.8685-1.196-5.8109-7.235-12.7259-13.28-20.0279-18.959-7.1118-5.5336-14.1424-11.1856-20.9701-17.0616-2.15776-1.8561-4.97485-3.4693-5.70161-7.0365.82814-.5295 1.57655-1.178 2.44404-1.537 6.85097-2.8306 13.71687-5.6262 20.59587-8.3858 1.9872-.7981 2.65-2.2341 2.5267-4.2619-.3918-6.4029-.8299-12.8033-1.0829-19.2113-.2986-7.6049-.3656-15.2165-.6552-22.8211-.089-2.3455-.58-4.6758-.9138-7.2147 2.16-1.6133 4.8237-1.732 7.3151-2.225 8.2561-1.63004 16.5202-3.22083 24.8081-4.66814 2.5354-.44253 5.1676-.57441 7.7429-.47414 1.7407.06842 2.8981 1.77119 2.4034 3.49072-1.4407 4.99326-.2466 9.94936-.204 14.93246.0746 9.01-.3106 18.0242-.5155 27.0353-.0398 1.7695-.1326 3.5389-.1913 5.079 2.1601 1.9697 4.4809 1.4291 6.6131 1.3847 6.1109-.136 11.9673 1.0325 17.6609 3.1229 1.2609.463 2.405 1.2494 3.4166 1.7867.4645 2.2917-.8987 3.2565-2.0186 4.3823-3.1091 3.125-6.5088 6.029-9.1921 9.4852-3.1765 4.0915-7.0011 7.602-9.9677 11.8633-2.8613 4.1084-6.2353 7.8813-8.8539 12.1296-2.9351 4.76-6.1574 9.405-8.0331 14.768-.6574 1.882-1.5301 3.686-2.3305 5.592z" fill="#fff"/><path d="m35.9172 20.6093-.4383.1045.3327.2987zm27.9673 70.3245c1.106.9779 2.0636.787 3.2349-.1517-1.4043-.9165-2.4125-1.1137-3.2349.1517zm2.3681-62.5311c-1.139-2.7836-1.139-2.7836-4.0392-1.4393 1.4483.5162 2.5629.9149 4.0392 1.4393zm-28.3217 65.8095c-3.8128-1.4743-3.8164-1.4606-5.9576-.1699 1.9522 1.1267 3.7357 1.1007 5.9576.1699zm-8.3934-6.4321c-2.3151-1.5252-3.5706-1.7691-4.8961-1.1004-.2858.1439-.665.6236-.6022.8406.1346.5017.5659 1.3538.7876 1.3252 1.246-.1529 2.4678-.5229 4.7107-1.0654zm13.0207-41.403c-1.594-1.5462-3.5738-1.7809-5.5189-1.8143-.5424-.01-1.3181.7789-1.597 1.3792-.4033.8731.5296 2.2267 1.4123 2.2001 1.9601-.0616 4.0147.1003 5.7036-1.765zm.9831-17.8576c-2.9885-2.0099-5.5139-2.4977-8.3044-2.061-.0622 2.3859.1414 2.9641 1.0453 3.167 2.1835.4921 4.3263.5409 7.2591-1.106zm21.0554 16.3653c1.1533-1.5543 1.2707-3.0407.0014-3.4161-2.6954-.797-5.4727-.6209-8.7825 1.3174 3.3615 1.1527 5.8147 2.3194 8.7811 2.0987zm-29.5065-10.4767c.125 2.0215.2019 3.2869.2816 4.5631 3.5068.7567 6.4727.2552 10.0219-1.2679-3.3645-1.8005-6.3042-2.5993-10.3035-3.2952zm11.5224 20.0097c-3.2719-2.061-6.5584-1.4868-9.6054-1.949-.3369-.0521-1.1237.7341-1.1471 1.1603-.0612 1.108.1863 2.2304.3425 3.626 3.6615-.6024 6.9002-1.1845 10.41-2.8373zm17.338-1.321c.9632-1.7771.6237-2.9853-.833-3.0931-2.9259-.2189-5.8806-.1148-8.82-.0255-.5388.017-1.0626.5904-2.7539 1.5993 4.9539.5373 8.4318 1.9564 12.4069 1.5193zm1.7262-42.4201c-3.2445-1.27013-5.4495-.1024-7.7894 1.6119 1.1183 2.167 2.8707 3.1096 4.4685 4.1724 1.0288.6859 2.5698.0763 2.8136-1.1505.2963-1.4954.3449-3.0408.5073-4.6338zm-5.6259 72.7238c3.3197 1.5697 6.8865 1.9827 10.4551 2.3079 1.6897.1545 2.2755-.6665 2.5448-3.265-4.3554-.7491-8.6318-.419-12.9999.9571zm-17.4956-11.3092c-6.1181-2.8409-11.3899-2.7016-16.2018.4887 1.2778.2877 2.1821.7086 3.0544.6494 4.232-.2779 8.5744.3901 13.1474-1.1381zm6.9805-12.7275c4.0375 1.1535 8.1667 1.5211 12.3302 1.2238.532-.0393 1.3628-1.0043 1.3861-1.5682.0225-.5415-.8274-1.6101-1.2865-1.6041-4.1617.0385-8.3499.0263-12.4298 1.9485zm16.3285-28.1143c-4.7563 1.0598-9.1474.0757-13.7856 2.5584 4.7064 1.9729 8.9254 2.2719 13.4547 2.6759.1721-.8678.3512-1.4379.3881-2.0179.0443-.7686-.0201-1.5438-.0572-3.2164zm-6.4319 44.15c.3975.6406.5546 1.1771.7717 1.2013 5.3516.6333 10.7015 1.275 16.0658 1.7624 1.6356.1495 3.2197-1.3471 2.8688-2.3704-.5135-1.5045-1.8922-1.2534-3.0171-1.308-2.6-.1231-5.2064-.1518-7.8112-.1625-2.9422-.0108-5.8724.1371-8.878.8772zm-46.4768 2.4194c1.1737 3.2164 2.8784 4.1995 5.7678 3.8442 5.3509-.6559 10.7456-.9483 16.1163-1.4425.897-.0849 1.769-.4339 2.6507-.6606.0669-.413.132-.8252.1994-1.2373-.7972-.0633-1.595-.1306-2.3947-.185-2.9917-.2108-5.9809-.4161-8.9727-.6225-1.384-.0959-2.8477.0607-4.1269-.3532-1.241-.4026-2.2929-1.3898-3.3195-2.0492zm44.1918-9.4415c2.4856.5215 3.7062.8651 4.9472 1.0242 5.9293.7638 11.9432 1.1174 17.7709 2.3508 3.2975.6992 5.3642-.1804 7.3406-2.4152.7938-.894 1.64-1.7504 2.3622-2.6999.973-1.2856.5145-3.0048-1.0365-3.3286-2.5205-.5253-5.0979-.7822-7.6594-1.0839-.2421-.0282-.5425.4431-.8187.6828.5273.9559 1.0514 1.9023 1.7904 3.2442-7.9945 1.7684-15.9009-.372-24.6967 2.2256zm-7.9138-52.0352c.2978.1163.5996.234.8996.3504-.0473-.2363-.0943-.4716-.143-.7084-.267.1827-.5341.3676-.802.5529-.0675-.1885-.0849-.4968-.2087-.5483-4.315-1.8135-8.7237-2.5636-13.2613-.9315-.3535.1285-.4652.9235-.8961 1.8567 4.0996.0571 7.8226.1607 11.5458.1297.9576-.0101 1.9086-.4492 2.8657-.7015zm-2.5793 48.2095c.3118-.2076.6236-.4152.9354-.6205-.3363.2144-.6731.43-1.0093.6443-.2285-.5215-.4012-1.461-.6936-1.5004-2.7391-.367-5.5147-.8672-8.2508-.7309-1.6611.0815-1.4091 1.5467-.2396 2.996 2.9155-.2426 6.0718-.506 9.2579-.7885zm10.7766 56.1543c-2.3768.73-3.7496.195-4.8685-1.196-5.8109-7.235-12.7259-13.28-20.0279-18.959-7.1118-5.5336-14.1424-11.1856-20.9701-17.0616-2.15776-1.8561-4.97485-3.4693-5.70161-7.0365.82814-.5295 1.57655-1.178 2.44404-1.537 6.85097-2.8306 13.71687-5.6262 20.59587-8.3858 1.9872-.7981 2.65-2.2341 2.5267-4.2619-.3918-6.4029-.8299-12.8033-1.0829-19.2113-.2986-7.6049-.3656-15.2165-.6552-22.8211-.089-2.3455-.58-4.6758-.9138-7.2147 2.16-1.6133 4.8237-1.732 7.3151-2.225 8.2561-1.63004 16.5202-3.22083 24.8081-4.66814 2.5354-.44253 5.1676-.57441 7.7429-.47414 1.7407.06842 2.8981 1.77119 2.4034 3.49072-1.4407 4.99326-.2466 9.94936-.204 14.93246.0746 9.01-.3106 18.0242-.5155 27.0353-.0398 1.7695-.1326 3.5389-.1913 5.079 2.1601 1.9697 4.4809 1.4291 6.6131 1.3847 6.1109-.136 11.9673 1.0325 17.6609 3.1229 1.2609.463 2.405 1.2494 3.4166 1.7867.4645 2.2917-.8987 3.2565-2.0186 4.3823-3.1091 3.125-6.5088 6.029-9.1921 9.4852-3.1765 4.0915-7.0011 7.602-9.9677 11.8633-2.8613 4.1084-6.2353 7.8813-8.8539 12.1296-2.9351 4.76-6.1574 9.405-8.0331 14.768-.6574 1.882-1.5301 3.686-2.3305 5.592z" mask="url(#a)" stroke="#1f1f23" stroke-width="10"/></g></svg>