<svg fill="none" height="159" viewBox="0 0 127 159" width="127" xmlns="http://www.w3.org/2000/svg" xmlns:xlink="http://www.w3.org/1999/xlink"><mask id="a" fill="#000" height="204.545" maskUnits="userSpaceOnUse" width="208.812" x="-39.309" y="-14.173"><path d="m-39.309-14.173h208.812v204.545h-208.812z" fill="#fff"/><path clip-rule="evenodd" d="m107.431 43.4307.467.3926-.584.1599zm-76.5827 68.2113c-1.9337.513-2.9779-.3-3.8267-2.148 2.2577-.258 3.5988.116 3.8267 2.148zm35.1009-77.1903c3.07-2.6805 3.07-2.6805 5.7671.7092-2.0679-.2541-3.6603-.448-5.7671-.7092zm-5.6506 96.9213c5.5142.529 5.5102.548 7.3205 3.412-3.0492.179-5.194-.935-7.3205-3.412zm14.0737-2.696c3.7307-.442 5.3998.025 6.5995 1.64.2589.348.427 1.16.2191 1.384-.4676.526-1.5076 1.297-1.7588 1.127-1.4166-.941-2.6721-2.132-5.0598-4.151zm9.3667-58.0629c2.8699-.9053 5.4108.0126 7.7875 1.1532.6631.3173 1.1239 1.7439 1.0972 2.6405-.0417 1.3026-1.9936 2.376-3.0469 1.8077-2.3371-1.2648-4.9244-2.3162-5.8378-5.6014zm9.6525-22.2303c4.8407-.6201 8.1965.3223 11.3115 2.5458-1.373 2.9282-1.971 3.5049-3.189 3.2018-2.9442-.7296-5.5697-1.9716-8.1225-5.7476zm-35.4446 7.0404c-.4532-2.5832.3071-4.4552 2.0727-4.1392 3.7492.6711 7.0068 2.5709 9.8395 6.9288-4.7722-.6448-8.4526-.721-11.9122-2.7896zm42.1071 5.2248c-1.3792 2.3731-2.2407 3.8593-3.1121 5.357-4.7078-1.2127-7.9963-3.6211-11.3711-7.6214 5.1692-.1382 9.2155.6791 14.4832 2.2644zm-26.1091 17.2439c5.2153-.51 8.848 2.1812 12.8199 3.4715.4397.1414.9155 1.5716.6851 2.1022-.5988 1.3794-1.58 2.5889-2.6167 4.1846-4.0699-2.953-7.6399-5.6248-10.8883-9.7583zm-20.2016-12.128c-.0878-2.7378 1.0571-3.9953 2.8873-3.2414 3.6774 1.5116 7.1937 3.4317 10.7003 5.3247.6424.3479.9288 1.3605 2.3651 3.6097-6.3276-2.3572-11.4026-2.7498-15.9527-5.693zm23.6668-52.4373c4.7017.4313 6.6639 3.1849 8.4576 6.6824-2.6706 1.9461-5.3658 2.024-7.9469 2.3413-1.6628.2062-3.1595-1.468-2.7099-3.1022.5492-1.9915 1.4287-3.8931 2.1992-5.9215zm-37.3434 91.5164c-4.9747-.114-9.5465-1.78-14.067-3.553-2.1408-.839-2.3519-2.189-1.1003-5.5004 5.7311 1.737 10.7112 4.7334 15.1673 9.0534zm28.0618-3.077c9.1368.273 15.4387 3.643 19.3308 10.43-1.7227-.427-3.0739-.467-4.0946-1.068-4.958-2.906-10.6242-4.734-15.2362-9.362zm-.7281-19.6572c-5.5915-1.0544-10.8169-3.1163-15.6803-6.0046-.6206-.3707-1.0411-2.0441-.7269-2.7414.3015-.6697 1.98-1.4481 2.5325-1.1621 5.0183 2.5737 10.0993 5.1021 13.8747 9.9081zm-2.7094-43.9735c5.1183 4.1719 11.0354 5.646 15.1468 11.47-6.8995-.4677-12.1921-2.6673-17.9244-4.9281.3185-1.1557.4477-1.9552.7552-2.6802.413-.9581.9618-1.858 2.0224-3.8617zm-19.0167 57.3903c-.8705.5346-1.3866 1.0892-1.6643.9867-6.8676-2.4824-13.7384-4.9536-20.5328-7.6203-2.0722-.812-3.0825-3.587-2.036-4.6136 1.5356-1.5107 3.0533-.3695 4.4492.2475 3.2245 1.4296 6.3994 2.9775 9.5615 4.5462 3.5708 1.7734 7.0307 3.7319 10.2224 6.4535zm54.8347 31.1524c-3.3751 3.184-6.0372 3.339-9.3218 1.155-6.0839-4.044-12.4417-7.674-18.6479-11.534-1.0351-.647-1.8796-1.6-2.8101-2.41.1698-.541.3412-1.08.5099-1.62 1.0041.408 2.0115.81 3.0133 1.23 3.7522 1.561 7.4981 3.128 11.2478 4.694 1.7349.725 3.413 1.803 5.2139 2.078 1.7479.266 3.6217-.291 5.2657-.466zm-47.8027-38.2717c-3.3278-.8776-5.0151-1.2025-6.6151-1.7633-7.6466-2.6751-15.1469-5.8985-22.9556-7.9429-4.4194-1.1552-6.3889-3.4758-7.4262-7.3831-.4187-1.5651-.9239-3.1164-1.2222-4.7051-.398-2.1483 1.2013-3.9526 3.2768-3.403 3.3724.894 6.6508 2.1478 9.937 3.3378.3104.1128.3882.8661.5772 1.3243-1.2193.8378-2.4288 1.6661-4.1388 2.8429 8.6109 6.9967 19.4887 9.2046 28.5669 17.6924zm41.1835-58.2318c-.4314-.04-.8685-.0807-1.3026-.1219.2008-.2575.4006-.514.6034-.7713.2125.3834.4238.7696.6359 1.1568.1961-.1874.4045-.5503.5857-.5374 6.3288.4231 12.1248 2.1914 16.6308 6.9239.35.3703.003 1.4012-.042 2.7933-5.001-2.4201-9.574-4.5553-14.0656-6.8536-1.1539-.5936-2.0394-1.7031-3.0456-2.5898zm-26.1487 59.9686c-.2517-.4407-.5035-.8815-.7564-1.3195.2772.4638.5542.9295.8315 1.3934.5935-.4931 1.373-1.5264 1.7512-1.3966 3.5411 1.2186 7.2074 2.298 10.4391 4.1245 1.9629 1.1074.7678 2.7294-1.5289 3.7751-3.3847-2.0643-7.0484-4.3-10.7365-6.5769zm-47.153 61.4839c2.4365 2.327 4.4239 2.513 6.6246 1.507 11.4324-5.236 23.4803-8.361 35.7745-10.807 11.9755-2.385 23.9245-4.963 35.7637-7.935 3.7411-.938 8.1331-1.182 11.1801-5.062-.682-1.144-1.195-2.385-2.028-3.346-6.581-7.589-13.2006-15.145-19.8584-22.665-1.9227-2.174-1.8538-4.3157-.473-6.6973 4.3625-7.5188 8.7796-15.0066 12.9774-22.6157 4.979-9.0315 9.682-18.2119 14.651-27.2484 1.532-2.7874 3.542-5.3123 5.488-8.1852-1.638-3.2661-4.792-5.0273-7.511-7.1373-9.012-6.988-18.0575-13.9332-27.2189-20.7189-2.8028-2.07569-5.9115-3.83379-9.0921-5.27604-2.1503-.97408-4.5864.3859-5.0312 2.76939-1.2867 6.92375-5.7426 12.20265-8.82 18.21355-5.5615 10.8698-10.5682 22.0238-15.7917 33.0644-1.0262 2.1679-1.9882 4.3678-2.8523 6.2691-3.8128 1.0746-6.2961-.9896-8.8521-2.3381-7.3204-3.8753-15.1245-6.0158-23.2913-6.9406-1.8086-.2048-3.67214.0531-5.22382.0897-1.95428 2.4943-.88865 4.4908-.21556 6.5346 1.8689 5.6737 4.22398 11.2561 5.37608 17.0723 1.3636 6.8855 3.8652 13.4605 4.8716 20.4245.9716 6.714 2.768 13.333 3.3604 20.071.6658 7.547 1.749 15.131.7648 22.767-.3464 2.679-.3847 5.394-.5728 8.19z" fill="#000" fill-rule="evenodd"/></mask><g clip-rule="evenodd" fill-rule="evenodd"><path d="m107.431 43.4307.467.3926-.584.1599zm-76.5827 68.2113c-1.9337.513-2.9779-.3-3.8267-2.148 2.2577-.258 3.5988.116 3.8267 2.148zm35.1009-77.1903c3.07-2.6805 3.07-2.6805 5.7671.7092-2.0679-.2541-3.6603-.448-5.7671-.7092zm-5.6506 96.9213c5.5142.529 5.5102.548 7.3205 3.412-3.0492.179-5.194-.935-7.3205-3.412zm14.0737-2.696c3.7307-.442 5.3998.025 6.5995 1.64.2589.348.427 1.16.2191 1.384-.4676.526-1.5076 1.297-1.7588 1.127-1.4166-.941-2.6721-2.132-5.0598-4.151zm9.3667-58.0629c2.8699-.9053 5.4108.0126 7.7875 1.1532.6631.3173 1.1239 1.7439 1.0972 2.6405-.0417 1.3026-1.9936 2.376-3.0469 1.8077-2.3371-1.2648-4.9244-2.3162-5.8378-5.6014zm9.6525-22.2303c4.8407-.6201 8.1965.3223 11.3115 2.5458-1.373 2.9282-1.971 3.5049-3.189 3.2018-2.9442-.7296-5.5697-1.9716-8.1225-5.7476zm-35.4446 7.0404c-.4532-2.5832.3071-4.4552 2.0727-4.1392 3.7492.6711 7.0068 2.5709 9.8395 6.9288-4.7722-.6448-8.4526-.721-11.9122-2.7896zm42.1071 5.2248c-1.3792 2.3731-2.2407 3.8593-3.1121 5.357-4.7078-1.2127-7.9963-3.6211-11.3711-7.6214 5.1692-.1382 9.2155.6791 14.4832 2.2644zm-26.1091 17.2439c5.2153-.51 8.848 2.1812 12.8199 3.4715.4397.1414.9155 1.5716.6851 2.1022-.5988 1.3794-1.58 2.5889-2.6167 4.1846-4.0699-2.953-7.6399-5.6248-10.8883-9.7583zm-20.2016-12.128c-.0878-2.7378 1.0571-3.9953 2.8873-3.2414 3.6774 1.5116 7.1937 3.4317 10.7003 5.3247.6424.3479.9288 1.3605 2.3651 3.6097-6.3276-2.3572-11.4026-2.7498-15.9527-5.693zm23.6668-52.4373c4.7017.4313 6.6639 3.1849 8.4576 6.6824-2.6706 1.9461-5.3658 2.024-7.9469 2.3413-1.6628.2062-3.1595-1.468-2.7099-3.1022.5492-1.9915 1.4287-3.8931 2.1992-5.9215zm-37.3434 91.5164c-4.9747-.114-9.5465-1.78-14.067-3.553-2.1408-.839-2.3519-2.189-1.1003-5.5004 5.7311 1.737 10.7112 4.7334 15.1673 9.0534zm28.0618-3.077c9.1368.273 15.4387 3.643 19.3308 10.43-1.7227-.427-3.0739-.467-4.0946-1.068-4.958-2.906-10.6242-4.734-15.2362-9.362zm-.7281-19.6572c-5.5915-1.0544-10.8169-3.1163-15.6803-6.0046-.6206-.3707-1.0411-2.0441-.7269-2.7414.3015-.6697 1.98-1.4481 2.5325-1.1621 5.0183 2.5737 10.0993 5.1021 13.8747 9.9081zm-2.7094-43.9735c5.1183 4.1719 11.0354 5.646 15.1468 11.47-6.8995-.4677-12.1921-2.6673-17.9244-4.9281.3185-1.1557.4477-1.9552.7552-2.6802.413-.9581.9618-1.858 2.0224-3.8617zm-19.0167 57.3903c-.8705.5346-1.3866 1.0892-1.6643.9867-6.8676-2.4824-13.7384-4.9536-20.5328-7.6203-2.0722-.812-3.0825-3.587-2.036-4.6136 1.5356-1.5107 3.0533-.3695 4.4492.2475 3.2245 1.4296 6.3994 2.9775 9.5615 4.5462 3.5708 1.7734 7.0307 3.7319 10.2224 6.4535zm54.8347 31.1524c-3.3751 3.184-6.0372 3.339-9.3218 1.155-6.0839-4.044-12.4417-7.674-18.6479-11.534-1.0351-.647-1.8796-1.6-2.8101-2.41.1698-.541.3412-1.08.5099-1.62 1.0041.408 2.0115.81 3.0133 1.23 3.7522 1.561 7.4981 3.128 11.2478 4.694 1.7349.725 3.413 1.803 5.2139 2.078 1.7479.266 3.6217-.291 5.2657-.466zm-47.8027-38.2717c-3.3278-.8776-5.0151-1.2025-6.6151-1.7633-7.6466-2.6751-15.1469-5.8985-22.9556-7.9429-4.4194-1.1552-6.3889-3.4758-7.4262-7.3831-.4187-1.5651-.9239-3.1164-1.2222-4.7051-.398-2.1483 1.2013-3.9526 3.2768-3.403 3.3724.894 6.6508 2.1478 9.937 3.3378.3104.1128.3882.8661.5772 1.3243-1.2193.8378-2.4288 1.6661-4.1388 2.8429 8.6109 6.9967 19.4887 9.2046 28.5669 17.6924zm41.1835-58.2318c-.4314-.04-.8685-.0807-1.3026-.1219.2008-.2575.4006-.514.6034-.7713.2125.3834.4238.7696.6359 1.1568.1961-.1874.4045-.5503.5857-.5374 6.3288.4231 12.1248 2.1914 16.6308 6.9239.35.3703.003 1.4012-.042 2.7933-5.001-2.4201-9.574-4.5553-14.0656-6.8536-1.1539-.5936-2.0394-1.7031-3.0456-2.5898zm-26.1487 59.9686c-.2517-.4407-.5035-.8815-.7564-1.3195.2772.4638.5542.9295.8315 1.3934.5935-.4931 1.373-1.5264 1.7512-1.3966 3.5411 1.2186 7.2074 2.298 10.4391 4.1245 1.9629 1.1074.7678 2.7294-1.5289 3.7751-3.3847-2.0643-7.0484-4.3-10.7365-6.5769zm-47.153 61.4839c2.4365 2.327 4.4239 2.513 6.6246 1.507 11.4324-5.236 23.4803-8.361 35.7745-10.807 11.9755-2.385 23.9245-4.963 35.7637-7.935 3.7411-.938 8.1331-1.182 11.1801-5.062-.682-1.144-1.195-2.385-2.028-3.346-6.581-7.589-13.2006-15.145-19.8584-22.665-1.9227-2.174-1.8538-4.3157-.473-6.6973 4.3625-7.5188 8.7796-15.0066 12.9774-22.6157 4.979-9.0315 9.682-18.2119 14.651-27.2484 1.532-2.7874 3.542-5.3123 5.488-8.1852-1.638-3.2661-4.792-5.0273-7.511-7.1373-9.012-6.988-18.0575-13.9332-27.2189-20.7189-2.8028-2.07569-5.9115-3.83379-9.0921-5.27604-2.1503-.97408-4.5864.3859-5.0312 2.76939-1.2867 6.92375-5.7426 12.20265-8.82 18.21355-5.5615 10.8698-10.5682 22.0238-15.7917 33.0644-1.0262 2.1679-1.9882 4.3678-2.8523 6.2691-3.8128 1.0746-6.2961-.9896-8.8521-2.3381-7.3204-3.8753-15.1245-6.0158-23.2913-6.9406-1.8086-.2048-3.67214.0531-5.22382.0897-1.95428 2.4943-.88865 4.4908-.21556 6.5346 1.8689 5.6737 4.22398 11.2561 5.37608 17.0723 1.3636 6.8855 3.8652 13.4605 4.8716 20.4245.9716 6.714 2.768 13.333 3.3604 20.071.6658 7.547 1.749 15.131.7648 22.767-.3464 2.679-.3847 5.394-.5728 8.19z" fill="#fff"/><path d="m107.431 43.4307.467.3926-.584.1599zm-76.5827 68.2113c-1.9337.513-2.9779-.3-3.8267-2.148 2.2577-.258 3.5988.116 3.8267 2.148zm35.1009-77.1903c3.07-2.6805 3.07-2.6805 5.7671.7092-2.0679-.2541-3.6603-.448-5.7671-.7092zm-5.6506 96.9213c5.5142.529 5.5102.548 7.3205 3.412-3.0492.179-5.194-.935-7.3205-3.412zm14.0737-2.696c3.7307-.442 5.3998.025 6.5995 1.64.2589.348.427 1.16.2191 1.384-.4676.526-1.5076 1.297-1.7588 1.127-1.4166-.941-2.6721-2.132-5.0598-4.151zm9.3667-58.0629c2.8699-.9053 5.4108.0126 7.7875 1.1532.6631.3173 1.1239 1.7439 1.0972 2.6405-.0417 1.3026-1.9936 2.376-3.0469 1.8077-2.3371-1.2648-4.9244-2.3162-5.8378-5.6014zm9.6525-22.2303c4.8407-.6201 8.1965.3223 11.3115 2.5458-1.373 2.9282-1.971 3.5049-3.189 3.2018-2.9442-.7296-5.5697-1.9716-8.1225-5.7476zm-35.4446 7.0404c-.4532-2.5832.3071-4.4552 2.0727-4.1392 3.7492.6711 7.0068 2.5709 9.8395 6.9288-4.7722-.6448-8.4526-.721-11.9122-2.7896zm42.1071 5.2248c-1.3792 2.3731-2.2407 3.8593-3.1121 5.357-4.7078-1.2127-7.9963-3.6211-11.3711-7.6214 5.1692-.1382 9.2155.6791 14.4832 2.2644zm-26.1091 17.2439c5.2153-.51 8.848 2.1812 12.8199 3.4715.4397.1414.9155 1.5716.6851 2.1022-.5988 1.3794-1.58 2.5889-2.6167 4.1846-4.0699-2.953-7.6399-5.6248-10.8883-9.7583zm-20.2016-12.128c-.0878-2.7378 1.0571-3.9953 2.8873-3.2414 3.6774 1.5116 7.1937 3.4317 10.7003 5.3247.6424.3479.9288 1.3605 2.3651 3.6097-6.3276-2.3572-11.4026-2.7498-15.9527-5.693zm23.6668-52.4373c4.7017.4313 6.6639 3.1849 8.4576 6.6824-2.6706 1.9461-5.3658 2.024-7.9469 2.3413-1.6628.2062-3.1595-1.468-2.7099-3.1022.5492-1.9915 1.4287-3.8931 2.1992-5.9215zm-37.3434 91.5164c-4.9747-.114-9.5465-1.78-14.067-3.553-2.1408-.839-2.3519-2.189-1.1003-5.5004 5.7311 1.737 10.7112 4.7334 15.1673 9.0534zm28.0618-3.077c9.1368.273 15.4387 3.643 19.3308 10.43-1.7227-.427-3.0739-.467-4.0946-1.068-4.958-2.906-10.6242-4.734-15.2362-9.362zm-.7281-19.6572c-5.5915-1.0544-10.8169-3.1163-15.6803-6.0046-.6206-.3707-1.0411-2.0441-.7269-2.7414.3015-.6697 1.98-1.4481 2.5325-1.1621 5.0183 2.5737 10.0993 5.1021 13.8747 9.9081zm-2.7094-43.9735c5.1183 4.1719 11.0354 5.646 15.1468 11.47-6.8995-.4677-12.1921-2.6673-17.9244-4.9281.3185-1.1557.4477-1.9552.7552-2.6802.413-.9581.9618-1.858 2.0224-3.8617zm-19.0167 57.3903c-.8705.5346-1.3866 1.0892-1.6643.9867-6.8676-2.4824-13.7384-4.9536-20.5328-7.6203-2.0722-.812-3.0825-3.587-2.036-4.6136 1.5356-1.5107 3.0533-.3695 4.4492.2475 3.2245 1.4296 6.3994 2.9775 9.5615 4.5462 3.5708 1.7734 7.0307 3.7319 10.2224 6.4535zm54.8347 31.1524c-3.3751 3.184-6.0372 3.339-9.3218 1.155-6.0839-4.044-12.4417-7.674-18.6479-11.534-1.0351-.647-1.8796-1.6-2.8101-2.41.1698-.541.3412-1.08.5099-1.62 1.0041.408 2.0115.81 3.0133 1.23 3.7522 1.561 7.4981 3.128 11.2478 4.694 1.7349.725 3.413 1.803 5.2139 2.078 1.7479.266 3.6217-.291 5.2657-.466zm-47.8027-38.2717c-3.3278-.8776-5.0151-1.2025-6.6151-1.7633-7.6466-2.6751-15.1469-5.8985-22.9556-7.9429-4.4194-1.1552-6.3889-3.4758-7.4262-7.3831-.4187-1.5651-.9239-3.1164-1.2222-4.7051-.398-2.1483 1.2013-3.9526 3.2768-3.403 3.3724.894 6.6508 2.1478 9.937 3.3378.3104.1128.3882.8661.5772 1.3243-1.2193.8378-2.4288 1.6661-4.1388 2.8429 8.6109 6.9967 19.4887 9.2046 28.5669 17.6924zm41.1835-58.2318c-.4314-.04-.8685-.0807-1.3026-.1219.2008-.2575.4006-.514.6034-.7713.2125.3834.4238.7696.6359 1.1568.1961-.1874.4045-.5503.5857-.5374 6.3288.4231 12.1248 2.1914 16.6308 6.9239.35.3703.003 1.4012-.042 2.7933-5.001-2.4201-9.574-4.5553-14.0656-6.8536-1.1539-.5936-2.0394-1.7031-3.0456-2.5898zm-26.1487 59.9686c-.2517-.4407-.5035-.8815-.7564-1.3195.2772.4638.5542.9295.8315 1.3934.5935-.4931 1.373-1.5264 1.7512-1.3966 3.5411 1.2186 7.2074 2.298 10.4391 4.1245 1.9629 1.1074.7678 2.7294-1.5289 3.7751-3.3847-2.0643-7.0484-4.3-10.7365-6.5769zm-47.153 61.4839c2.4365 2.327 4.4239 2.513 6.6246 1.507 11.4324-5.236 23.4803-8.361 35.7745-10.807 11.9755-2.385 23.9245-4.963 35.7637-7.935 3.7411-.938 8.1331-1.182 11.1801-5.062-.682-1.144-1.195-2.385-2.028-3.346-6.581-7.589-13.2006-15.145-19.8584-22.665-1.9227-2.174-1.8538-4.3157-.473-6.6973 4.3625-7.5188 8.7796-15.0066 12.9774-22.6157 4.979-9.0315 9.682-18.2119 14.651-27.2484 1.532-2.7874 3.542-5.3123 5.488-8.1852-1.638-3.2661-4.792-5.0273-7.511-7.1373-9.012-6.988-18.0575-13.9332-27.2189-20.7189-2.8028-2.07569-5.9115-3.83379-9.0921-5.27604-2.1503-.97408-4.5864.3859-5.0312 2.76939-1.2867 6.92375-5.7426 12.20265-8.82 18.21355-5.5615 10.8698-10.5682 22.0238-15.7917 33.0644-1.0262 2.1679-1.9882 4.3678-2.8523 6.2691-3.8128 1.0746-6.2961-.9896-8.8521-2.3381-7.3204-3.8753-15.1245-6.0158-23.2913-6.9406-1.8086-.2048-3.67214.0531-5.22382.0897-1.95428 2.4943-.88865 4.4908-.21556 6.5346 1.8689 5.6737 4.22398 11.2561 5.37608 17.0723 1.3636 6.8855 3.8652 13.4605 4.8716 20.4245.9716 6.714 2.768 13.333 3.3604 20.071.6658 7.547 1.749 15.131.7648 22.767-.3464 2.679-.3847 5.394-.5728 8.19z" mask="url(#a)" stroke="#1f1f23" stroke-width="10"/></g></svg>