<svg fill="none" height="90" viewBox="0 0 75 90" width="75" xmlns="http://www.w3.org/2000/svg" xmlns:xlink="http://www.w3.org/1999/xlink"><mask id="a" fill="#000" height="116.466" maskUnits="userSpaceOnUse" width="120.639" x="-21.4283" y="-7.76698"><path d="m-21.4283-7.76698h120.639v116.466h-120.639z" fill="#fff"/><path clip-rule="evenodd" d="m13.4758 27.9989-.2354.2369.3263.0583zm45.0739 33.3927c1.0786.1843 1.6075-.3097 1.979-1.3584-1.2426-.0293-1.9548.24-1.979 1.3584zm-22.9179-40.3242c-1.8042-1.3093-1.8042-1.3093-3.1068.67 1.114-.2402 1.972-.4241 3.1068-.67zm7.8448 52.5212c-2.9779.5594-2.9748.5695-3.8201 2.2185 1.6699-.0521 2.7835-.7647 3.8201-2.2185zm-7.7994-.7763c-2.0541-.0572-2.9404.2792-3.5145 1.218-.1239.2022-.1756.6525-.0513.7647.2806.2636.885.6321 1.0136.5275.7254-.5828 1.3508-1.2928 2.5522-2.5102zm-7.9582-31.1701c-1.6079-.352-2.9469.273-4.1855 1.0113-.3457.2054-.5266 1.0053-.4679 1.4924.0867.7075 1.2029 1.1963 1.7487.8349 1.211-.804 2.5687-1.504 2.9047-3.3386zm-6.3515-11.6355c-2.6676-.0998-4.4492.5787-6.037 1.9432.8922 1.5276 1.2462 1.8124 1.8949 1.5874 1.5679-.5423 2.9371-1.348 4.1421-3.5306zm19.6551 2.0922c.1199-1.4295-.3864-2.4119-1.3327-2.153-2.0094.55-3.6906 1.7452-5.0194 4.2585 2.568-.5859 4.5692-.8084 6.3521-2.1055zm-22.6813 4.9171c.8679 1.2249 1.4103 1.9922 1.9587 2.7652 2.505-.8921 4.178-2.3659 5.8197-4.7111-2.8228.179-4.9869.8232-7.7784 1.9459zm15.0712 8.1098c-2.8662-.0213-4.7128 1.6234-6.8131 2.5216-.2326.0987-.4214.9012-.2698 1.1789.394.722.988 1.3326 1.6313 2.1509 2.0719-1.8088 3.8853-3.4399 5.4516-5.8514zm10.4086-7.6004c-.0868-1.4958-.7723-2.1245-1.7323-1.6238-1.929 1.0043-3.7501 2.2233-5.5672 3.427-.3329.2211-.4391.7868-1.1109 2.0827 3.3311-1.5953 6.0764-2.0588 8.4104-3.8859zm-15.4716-27.402c-2.5401.4662-3.4737 2.0628-4.2788 4.0563 1.5506.9288 3.0227.8387 4.4443.8846.916.0306 1.649-.9551 1.3237-1.8232-.3971-1.0579-.9697-2.0506-1.4892-3.1177zm24.844 48.018c2.7044-.3068 5.1131-1.4389 7.4885-2.6271 1.1249-.5622 1.1735-1.3082.3289-3.0506-3.0367 1.2282-5.6023 3.1055-7.8174 5.6777zm-15.4383-.296c-4.964.5983-8.2313 2.744-10.0178 6.6325.9174-.3175 1.6516-.4053 2.1781-.7831 2.558-1.8271 5.5548-3.1014 7.8397-5.8494zm-.5701-10.7443c2.9942-.8493 5.7394-2.2296 8.2467-4.0422.3199-.2324.4666-1.1647.2612-1.5292-.1972-.3499-1.1499-.6914-1.4368-.5085-2.6072 1.6489-5.2508 3.2761-7.0711 6.0799zm-.6866-24.0883c-2.5832 2.5244-5.7341 3.6184-7.6874 6.9933 3.7356-.5941 6.5107-2.0526 9.5222-3.5661-.2303-.614-.34-1.0431-.5432-1.423-.2721-.5016-.6153-.9648-1.2916-2.0042zm13.182 30.3288c.5005.2485.8089.5252.9552.4557 3.6191-1.6901 7.2405-3.3742 10.8107-5.1611 1.0889-.5442 1.5028-2.1056.8822-2.6134-.9108-.7475-1.6815-.0511-2.4115.3536-1.6863.9374-3.3398 1.9368-4.9852 2.9469-1.858 1.1417-3.6465 2.3787-5.2514 4.0183zm-28.3397 19.6674c1.995 1.5683 3.4529 1.5223 5.1348.1706 3.1154-2.5021 6.4004-4.7922 9.5915-7.2002.532-.4036.9452-.9639 1.4123-1.4509-.1191-.2864-.239-.5715-.3575-.8575-.5269.2713-1.0559.5404-1.581.8183-1.9673 1.035-3.9309 2.0725-5.8965 3.1104-.9095.4798-1.7707 1.1499-2.7382 1.3884-.9391.2308-1.9873.0194-2.8915.0047zm24.1588-23.1999c1.7697-.6417 2.6729-.9017 3.5169-1.2859 4.0341-1.8333 7.9614-3.9582 12.1148-5.4559 2.3507-.8467 3.3095-2.2077 3.6824-4.3873.1511-.8732.35-1.7431.4344-2.6232.1112-1.1899-.8488-2.0942-1.9524-1.6927-1.7932.6529-3.5175 1.4971-5.2492 2.307-.1636.0767-.1689.4909-.2493.7498.7054.3964 1.405.7882 2.3945 1.3452-4.3469 4.235-10.164 5.9727-14.6921 11.043zm-25.2991-29.6971c.233-.043.4692-.0866.7036-.1305-.122-.1303-.2435-.2603-.3666-.3905-.0969.2194-.193.4401-.2895.6615-.1161-.0925-.2475-.2799-.3455-.264-3.4268.5418-6.4974 1.7901-8.7194 4.5898-.1725.219.0675.7635.1602 1.5197 2.6054-1.5644 4.9916-2.9525 7.3254-4.4254.5995-.3801 1.0273-1.0281 1.5318-1.5606zm17.1941 31.3827c.1155-.2525.2309-.505.3472-.756-.1282.2663-.2562.5336-.3845.7999-.3475-.2394-.823-.764-1.0227-.6746-1.8691.8379-3.8132 1.6063-5.4839 2.7602-1.0149.6998-.2841 1.5247 1.0185 1.9814 1.7423-1.2911 3.6282-2.6891 5.5254-4.1109zm28.711 31.1753c-1.2129 1.3873-2.2864 1.5866-3.5348 1.1464-6.4854-2.29-13.2024-3.3997-20.02-4.1275-6.6411-.7102-13.2773-1.5269-19.8731-2.564-2.0841-.3272-4.4888-.2439-6.3392-2.2078.3151-.657.5335-1.3577.9399-1.9226 3.2117-4.4579 6.4465-8.8995 9.7036-13.3236.9405-1.2786.7976-2.4422-.0717-3.6716-2.7463-3.8815-5.5209-7.7433-8.1817-11.6821-3.1568-4.6751-6.1703-9.4449-9.32144-14.1233-.97164-1.4431-2.19067-2.7198-3.3921-4.1891.73123-1.8598 2.3632-2.9744 3.74059-4.2576 4.56565-4.2499 9.15175-8.4783 13.80875-12.62546 1.4248-1.26858 3.0319-2.37921 4.6936-3.32132 1.1235-.63639 2.5175-.01533 2.877 1.26123 1.0415 3.70855 3.7285 6.36515 5.7006 9.48835 3.5642 5.6479 6.8403 11.4779 10.2288 17.2356.6657 1.1305 1.2979 2.2816 1.8621 3.2749 2.13.3979 3.3812-.8488 4.7074-1.7091 3.7973-2.4711 7.9434-4.021 12.3469-4.9264.9751-.2005 2.003-.1517 2.8501-.208 1.1873 1.2626.705 2.4027.4388 3.5492-.7391 3.1827-1.7475 6.3396-2.089 9.5647-.4043 3.818-1.4437 7.5229-1.6495 11.3659-.1991 3.7056-.8521 7.3999-.8435 11.0992.0085 4.1446-.2086 8.329.703 12.4403.3205 1.4425.4749 2.9199.7149 4.4337z" fill="#000" fill-rule="evenodd"/></mask><g clip-rule="evenodd" fill-rule="evenodd"><path d="m13.4758 27.9989-.2354.2369.3263.0583zm45.0739 33.3927c1.0786.1843 1.6075-.3097 1.979-1.3584-1.2426-.0293-1.9548.24-1.979 1.3584zm-22.9179-40.3242c-1.8042-1.3093-1.8042-1.3093-3.1068.67 1.114-.2402 1.972-.4241 3.1068-.67zm7.8448 52.5212c-2.9779.5594-2.9748.5695-3.8201 2.2185 1.6699-.0521 2.7835-.7647 3.8201-2.2185zm-7.7994-.7763c-2.0541-.0572-2.9404.2792-3.5145 1.218-.1239.2022-.1756.6525-.0513.7647.2806.2636.885.6321 1.0136.5275.7254-.5828 1.3508-1.2928 2.5522-2.5102zm-7.9582-31.1701c-1.6079-.352-2.9469.273-4.1855 1.0113-.3457.2054-.5266 1.0053-.4679 1.4924.0867.7075 1.2029 1.1963 1.7487.8349 1.211-.804 2.5687-1.504 2.9047-3.3386zm-6.3515-11.6355c-2.6676-.0998-4.4492.5787-6.037 1.9432.8922 1.5276 1.2462 1.8124 1.8949 1.5874 1.5679-.5423 2.9371-1.348 4.1421-3.5306zm19.6551 2.0922c.1199-1.4295-.3864-2.4119-1.3327-2.153-2.0094.55-3.6906 1.7452-5.0194 4.2585 2.568-.5859 4.5692-.8084 6.3521-2.1055zm-22.6813 4.9171c.8679 1.2249 1.4103 1.9922 1.9587 2.7652 2.505-.8921 4.178-2.3659 5.8197-4.7111-2.8228.179-4.9869.8232-7.7784 1.9459zm15.0712 8.1098c-2.8662-.0213-4.7128 1.6234-6.8131 2.5216-.2326.0987-.4214.9012-.2698 1.1789.394.722.988 1.3326 1.6313 2.1509 2.0719-1.8088 3.8853-3.4399 5.4516-5.8514zm10.4086-7.6004c-.0868-1.4958-.7723-2.1245-1.7323-1.6238-1.929 1.0043-3.7501 2.2233-5.5672 3.427-.3329.2211-.4391.7868-1.1109 2.0827 3.3311-1.5953 6.0764-2.0588 8.4104-3.8859zm-15.4716-27.402c-2.5401.4662-3.4737 2.0628-4.2788 4.0563 1.5506.9288 3.0227.8387 4.4443.8846.916.0306 1.649-.9551 1.3237-1.8232-.3971-1.0579-.9697-2.0506-1.4892-3.1177zm24.844 48.018c2.7044-.3068 5.1131-1.4389 7.4885-2.6271 1.1249-.5622 1.1735-1.3082.3289-3.0506-3.0367 1.2282-5.6023 3.1055-7.8174 5.6777zm-15.4383-.296c-4.964.5983-8.2313 2.744-10.0178 6.6325.9174-.3175 1.6516-.4053 2.1781-.7831 2.558-1.8271 5.5548-3.1014 7.8397-5.8494zm-.5701-10.7443c2.9942-.8493 5.7394-2.2296 8.2467-4.0422.3199-.2324.4666-1.1647.2612-1.5292-.1972-.3499-1.1499-.6914-1.4368-.5085-2.6072 1.6489-5.2508 3.2761-7.0711 6.0799zm-.6866-24.0883c-2.5832 2.5244-5.7341 3.6184-7.6874 6.9933 3.7356-.5941 6.5107-2.0526 9.5222-3.5661-.2303-.614-.34-1.0431-.5432-1.423-.2721-.5016-.6153-.9648-1.2916-2.0042zm13.182 30.3288c.5005.2485.8089.5252.9552.4557 3.6191-1.6901 7.2405-3.3742 10.8107-5.1611 1.0889-.5442 1.5028-2.1056.8822-2.6134-.9108-.7475-1.6815-.0511-2.4115.3536-1.6863.9374-3.3398 1.9368-4.9852 2.9469-1.858 1.1417-3.6465 2.3787-5.2514 4.0183zm-28.3397 19.6674c1.995 1.5683 3.4529 1.5223 5.1348.1706 3.1154-2.5021 6.4004-4.7922 9.5915-7.2002.532-.4036.9452-.9639 1.4123-1.4509-.1191-.2864-.239-.5715-.3575-.8575-.5269.2713-1.0559.5404-1.581.8183-1.9673 1.035-3.9309 2.0725-5.8965 3.1104-.9095.4798-1.7707 1.1499-2.7382 1.3884-.9391.2308-1.9873.0194-2.8915.0047zm24.1588-23.1999c1.7697-.6417 2.6729-.9017 3.5169-1.2859 4.0341-1.8333 7.9614-3.9582 12.1148-5.4559 2.3507-.8467 3.3095-2.2077 3.6824-4.3873.1511-.8732.35-1.7431.4344-2.6232.1112-1.1899-.8488-2.0942-1.9524-1.6927-1.7932.6529-3.5175 1.4971-5.2492 2.307-.1636.0767-.1689.4909-.2493.7498.7054.3964 1.405.7882 2.3945 1.3452-4.3469 4.235-10.164 5.9727-14.6921 11.043zm-25.2991-29.6971c.233-.043.4692-.0866.7036-.1305-.122-.1303-.2435-.2603-.3666-.3905-.0969.2194-.193.4401-.2895.6615-.1161-.0925-.2475-.2799-.3455-.264-3.4268.5418-6.4974 1.7901-8.7194 4.5898-.1725.219.0675.7635.1602 1.5197 2.6054-1.5644 4.9916-2.9525 7.3254-4.4254.5995-.3801 1.0273-1.0281 1.5318-1.5606zm17.1941 31.3827c.1155-.2525.2309-.505.3472-.756-.1282.2663-.2562.5336-.3845.7999-.3475-.2394-.823-.764-1.0227-.6746-1.8691.8379-3.8132 1.6063-5.4839 2.7602-1.0149.6998-.2841 1.5247 1.0185 1.9814 1.7423-1.2911 3.6282-2.6891 5.5254-4.1109zm28.711 31.1753c-1.2129 1.3873-2.2864 1.5866-3.5348 1.1464-6.4854-2.29-13.2024-3.3997-20.02-4.1275-6.6411-.7102-13.2773-1.5269-19.8731-2.564-2.0841-.3272-4.4888-.2439-6.3392-2.2078.3151-.657.5335-1.3577.9399-1.9226 3.2117-4.4579 6.4465-8.8995 9.7036-13.3236.9405-1.2786.7976-2.4422-.0717-3.6716-2.7463-3.8815-5.5209-7.7433-8.1817-11.6821-3.1568-4.6751-6.1703-9.4449-9.32144-14.1233-.97164-1.4431-2.19067-2.7198-3.3921-4.1891.73123-1.8598 2.3632-2.9744 3.74059-4.2576 4.56565-4.2499 9.15175-8.4783 13.80875-12.62546 1.4248-1.26858 3.0319-2.37921 4.6936-3.32132 1.1235-.63639 2.5175-.01533 2.877 1.26123 1.0415 3.70855 3.7285 6.36515 5.7006 9.48835 3.5642 5.6479 6.8403 11.4779 10.2288 17.2356.6657 1.1305 1.2979 2.2816 1.8621 3.2749 2.13.3979 3.3812-.8488 4.7074-1.7091 3.7973-2.4711 7.9434-4.021 12.3469-4.9264.9751-.2005 2.003-.1517 2.8501-.208 1.1873 1.2626.705 2.4027.4388 3.5492-.7391 3.1827-1.7475 6.3396-2.089 9.5647-.4043 3.818-1.4437 7.5229-1.6495 11.3659-.1991 3.7056-.8521 7.3999-.8435 11.0992.0085 4.1446-.2086 8.329.703 12.4403.3205 1.4425.4749 2.9199.7149 4.4337z" fill="#fff"/><path d="m13.4758 27.9989-.2354.2369.3263.0583zm45.0739 33.3927c1.0786.1843 1.6075-.3097 1.979-1.3584-1.2426-.0293-1.9548.24-1.979 1.3584zm-22.9179-40.3242c-1.8042-1.3093-1.8042-1.3093-3.1068.67 1.114-.2402 1.972-.4241 3.1068-.67zm7.8448 52.5212c-2.9779.5594-2.9748.5695-3.8201 2.2185 1.6699-.0521 2.7835-.7647 3.8201-2.2185zm-7.7994-.7763c-2.0541-.0572-2.9404.2792-3.5145 1.218-.1239.2022-.1756.6525-.0513.7647.2806.2636.885.6321 1.0136.5275.7254-.5828 1.3508-1.2928 2.5522-2.5102zm-7.9582-31.1701c-1.6079-.352-2.9469.273-4.1855 1.0113-.3457.2054-.5266 1.0053-.4679 1.4924.0867.7075 1.2029 1.1963 1.7487.8349 1.211-.804 2.5687-1.504 2.9047-3.3386zm-6.3515-11.6355c-2.6676-.0998-4.4492.5787-6.037 1.9432.8922 1.5276 1.2462 1.8124 1.8949 1.5874 1.5679-.5423 2.9371-1.348 4.1421-3.5306zm19.6551 2.0922c.1199-1.4295-.3864-2.4119-1.3327-2.153-2.0094.55-3.6906 1.7452-5.0194 4.2585 2.568-.5859 4.5692-.8084 6.3521-2.1055zm-22.6813 4.9171c.8679 1.2249 1.4103 1.9922 1.9587 2.7652 2.505-.8921 4.178-2.3659 5.8197-4.7111-2.8228.179-4.9869.8232-7.7784 1.9459zm15.0712 8.1098c-2.8662-.0213-4.7128 1.6234-6.8131 2.5216-.2326.0987-.4214.9012-.2698 1.1789.394.722.988 1.3326 1.6313 2.1509 2.0719-1.8088 3.8853-3.4399 5.4516-5.8514zm10.4086-7.6004c-.0868-1.4958-.7723-2.1245-1.7323-1.6238-1.929 1.0043-3.7501 2.2233-5.5672 3.427-.3329.2211-.4391.7868-1.1109 2.0827 3.3311-1.5953 6.0764-2.0588 8.4104-3.8859zm-15.4716-27.402c-2.5401.4662-3.4737 2.0628-4.2788 4.0563 1.5506.9288 3.0227.8387 4.4443.8846.916.0306 1.649-.9551 1.3237-1.8232-.3971-1.0579-.9697-2.0506-1.4892-3.1177zm24.844 48.018c2.7044-.3068 5.1131-1.4389 7.4885-2.6271 1.1249-.5622 1.1735-1.3082.3289-3.0506-3.0367 1.2282-5.6023 3.1055-7.8174 5.6777zm-15.4383-.296c-4.964.5983-8.2313 2.744-10.0178 6.6325.9174-.3175 1.6516-.4053 2.1781-.7831 2.558-1.8271 5.5548-3.1014 7.8397-5.8494zm-.5701-10.7443c2.9942-.8493 5.7394-2.2296 8.2467-4.0422.3199-.2324.4666-1.1647.2612-1.5292-.1972-.3499-1.1499-.6914-1.4368-.5085-2.6072 1.6489-5.2508 3.2761-7.0711 6.0799zm-.6866-24.0883c-2.5832 2.5244-5.7341 3.6184-7.6874 6.9933 3.7356-.5941 6.5107-2.0526 9.5222-3.5661-.2303-.614-.34-1.0431-.5432-1.423-.2721-.5016-.6153-.9648-1.2916-2.0042zm13.182 30.3288c.5005.2485.8089.5252.9552.4557 3.6191-1.6901 7.2405-3.3742 10.8107-5.1611 1.0889-.5442 1.5028-2.1056.8822-2.6134-.9108-.7475-1.6815-.0511-2.4115.3536-1.6863.9374-3.3398 1.9368-4.9852 2.9469-1.858 1.1417-3.6465 2.3787-5.2514 4.0183zm-28.3397 19.6674c1.995 1.5683 3.4529 1.5223 5.1348.1706 3.1154-2.5021 6.4004-4.7922 9.5915-7.2002.532-.4036.9452-.9639 1.4123-1.4509-.1191-.2864-.239-.5715-.3575-.8575-.5269.2713-1.0559.5404-1.581.8183-1.9673 1.035-3.9309 2.0725-5.8965 3.1104-.9095.4798-1.7707 1.1499-2.7382 1.3884-.9391.2308-1.9873.0194-2.8915.0047zm24.1588-23.1999c1.7697-.6417 2.6729-.9017 3.5169-1.2859 4.0341-1.8333 7.9614-3.9582 12.1148-5.4559 2.3507-.8467 3.3095-2.2077 3.6824-4.3873.1511-.8732.35-1.7431.4344-2.6232.1112-1.1899-.8488-2.0942-1.9524-1.6927-1.7932.6529-3.5175 1.4971-5.2492 2.307-.1636.0767-.1689.4909-.2493.7498.7054.3964 1.405.7882 2.3945 1.3452-4.3469 4.235-10.164 5.9727-14.6921 11.043zm-25.2991-29.6971c.233-.043.4692-.0866.7036-.1305-.122-.1303-.2435-.2603-.3666-.3905-.0969.2194-.193.4401-.2895.6615-.1161-.0925-.2475-.2799-.3455-.264-3.4268.5418-6.4974 1.7901-8.7194 4.5898-.1725.219.0675.7635.1602 1.5197 2.6054-1.5644 4.9916-2.9525 7.3254-4.4254.5995-.3801 1.0273-1.0281 1.5318-1.5606zm17.1941 31.3827c.1155-.2525.2309-.505.3472-.756-.1282.2663-.2562.5336-.3845.7999-.3475-.2394-.823-.764-1.0227-.6746-1.8691.8379-3.8132 1.6063-5.4839 2.7602-1.0149.6998-.2841 1.5247 1.0185 1.9814 1.7423-1.2911 3.6282-2.6891 5.5254-4.1109zm28.711 31.1753c-1.2129 1.3873-2.2864 1.5866-3.5348 1.1464-6.4854-2.29-13.2024-3.3997-20.02-4.1275-6.6411-.7102-13.2773-1.5269-19.8731-2.564-2.0841-.3272-4.4888-.2439-6.3392-2.2078.3151-.657.5335-1.3577.9399-1.9226 3.2117-4.4579 6.4465-8.8995 9.7036-13.3236.9405-1.2786.7976-2.4422-.0717-3.6716-2.7463-3.8815-5.5209-7.7433-8.1817-11.6821-3.1568-4.6751-6.1703-9.4449-9.32144-14.1233-.97164-1.4431-2.19067-2.7198-3.3921-4.1891.73123-1.8598 2.3632-2.9744 3.74059-4.2576 4.56565-4.2499 9.15175-8.4783 13.80875-12.62546 1.4248-1.26858 3.0319-2.37921 4.6936-3.32132 1.1235-.63639 2.5175-.01533 2.877 1.26123 1.0415 3.70855 3.7285 6.36515 5.7006 9.48835 3.5642 5.6479 6.8403 11.4779 10.2288 17.2356.6657 1.1305 1.2979 2.2816 1.8621 3.2749 2.13.3979 3.3812-.8488 4.7074-1.7091 3.7973-2.4711 7.9434-4.021 12.3469-4.9264.9751-.2005 2.003-.1517 2.8501-.208 1.1873 1.2626.705 2.4027.4388 3.5492-.7391 3.1827-1.7475 6.3396-2.089 9.5647-.4043 3.818-1.4437 7.5229-1.6495 11.3659-.1991 3.7056-.8521 7.3999-.8435 11.0992.0085 4.1446-.2086 8.329.703 12.4403.3205 1.4425.4749 2.9199.7149 4.4337z" mask="url(#a)" stroke="#1f1f23" stroke-width="10"/></g></svg>